<?xml version="1.0" standalone="no"?>
<!DOCTYPE svg PUBLIC "-//W3C//DTD SVG 20010904//EN"
 "http://www.w3.org/TR/2001/REC-SVG-20010904/DTD/svg10.dtd">
<svg version="1.0" xmlns="http://www.w3.org/2000/svg"
 width="300.000000pt" height="300.000000pt" viewBox="0 0 300.000000 300.000000"
 preserveAspectRatio="xMidYMid meet">
<metadata>
Created by potrace 1.14, written by Peter Selinger 2001-2017
</metadata>
<g transform="translate(0.000000,300.000000) scale(0.100000,-0.100000)"
fill="#000000" stroke="none">
<path d="M160 2581 c-55 -23 -109 -73 -135 -126 -19 -39 -20 -64 -20 -955 0
-867 1 -917 18 -952 25 -49 76 -100 123 -124 38 -18 78 -19 1354 -19 l1315 0
40 22 c58 31 105 85 125 142 15 46 17 126 16 943 l-1 893 -22 45 c-28 59 -61
93 -114 122 l-44 23 -1305 2 c-1243 2 -1307 1 -1350 -16z m2657 -84 c18 -9 45
-34 60 -54 l28 -36 3 -894 c2 -876 2 -894 -18 -932 -19 -38 -55 -71 -94 -85
-11 -4 -594 -7 -1297 -7 -1380 0 -1316 -2 -1366 52 -12 13 -27 37 -33 54 -8
21 -11 279 -11 907 0 961 -3 918 60 971 30 25 46 32 95 39 11 2 587 3 1280 2
1158 -1 1264 -2 1293 -17z"/>
<path d="M1173 2433 c-29 -5 -29 -20 -2 -42 20 -16 20 -18 4 -34 -23 -24 -28
-22 -64 23 -29 36 -36 40 -77 40 l-45 0 20 -29 c24 -33 35 -81 24 -96 -24 -33
-162 -98 -180 -86 -6 3 -13 16 -17 29 -7 21 -22 27 -56 22 -24 -3 -50 -43 -50
-78 0 -44 54 -102 96 -102 25 -1 21 -5 -31 -32 -76 -39 -105 -47 -133 -37 -26
10 -30 50 -6 70 13 11 13 14 0 21 -23 13 -65 -8 -72 -37 -8 -33 13 -83 39 -91
49 -16 121 -5 162 24 98 71 140 77 131 20 -4 -31 -4 -32 10 -14 29 40 8 78
-42 79 l-26 0 31 19 c17 11 31 24 31 29 0 17 26 9 47 -13 35 -38 34 -108 -2
-143 -31 -32 -62 -32 -87 0 -32 41 -84 28 -93 -22 -1 -10 6 -33 17 -52 11 -19
17 -43 15 -53 -3 -10 0 -18 8 -18 20 0 38 28 32 50 -8 31 17 24 30 -7 l11 -28
1 28 c1 30 21 38 21 8 0 -11 5 -23 10 -26 6 -3 10 3 10 14 0 29 18 36 41 15
18 -16 20 -16 40 2 64 57 57 128 -26 270 -24 39 -14 76 26 105 l32 22 112 -17
c173 -28 225 -11 225 73 0 47 -9 60 -56 76 -44 15 -65 5 -44 -20 12 -14 11
-18 -1 -25 -10 -7 -24 2 -50 30 -20 22 -38 39 -40 39 -2 -1 -14 -4 -26 -6z"/>
<path d="M2500 2390 c-26 -26 -25 -48 3 -78 21 -23 21 -24 3 -37 -26 -19 -95
-28 -166 -22 -44 3 -86 18 -167 57 -140 68 -175 80 -248 85 -66 5 -117 -5
-185 -36 -66 -30 -85 -61 -85 -139 -1 -57 -4 -68 -27 -91 -15 -15 -25 -35 -23
-45 2 -11 4 -26 4 -34 1 -9 10 -3 26 17 22 28 30 31 65 27 22 -3 71 -19 108
-35 82 -38 183 -42 306 -14 12 3 37 7 56 10 63 8 105 16 130 24 14 4 48 9 77
10 48 2 55 0 88 -34 82 -85 44 -173 -56 -131 -110 46 -363 57 -484 21 -138
-40 -298 -119 -402 -197 -49 -38 -55 -39 -117 -37 -36 1 -69 -1 -73 -4 -3 -4
2 -7 13 -7 28 0 89 -44 112 -82 11 -18 23 -50 27 -70 6 -32 9 -35 25 -26 43
27 92 -18 75 -71 -8 -26 -51 -38 -77 -22 -23 14 -38 7 -38 -19 0 -15 6 -18 38
-14 115 13 115 13 313 112 156 77 157 77 152 108 -6 36 17 64 52 64 37 0 58
-28 51 -68 -4 -28 0 -41 21 -66 14 -17 37 -53 49 -81 32 -69 45 -83 95 -100
47 -17 79 -41 79 -60 0 -16 -33 -37 -95 -60 -63 -24 -93 -43 -107 -68 -10 -19
-8 -20 48 -14 33 4 69 10 82 13 16 5 22 2 22 -11 0 -15 3 -14 28 3 41 29 80
33 87 11 4 -12 16 -19 31 -19 19 0 24 5 24 25 0 32 5 31 47 -5 34 -30 49 -32
103 -15 20 6 19 8 -7 28 -15 12 -48 40 -72 63 l-44 42 21 34 c21 34 30 88 14
88 -4 0 -13 -9 -20 -21 -15 -24 -65 -23 -70 1 -1 9 24 58 58 109 33 52 62 108
65 125 11 56 12 100 3 140 -6 28 -5 44 4 56 7 9 28 36 46 60 47 62 43 118 -12
179 -11 13 -32 28 -46 34 -14 6 -118 11 -245 12 -121 1 -230 5 -242 9 -12 4
-25 17 -29 28 -6 20 -7 20 -16 4 -6 -10 -8 -25 -5 -35 3 -14 -1 -16 -25 -13
-31 5 -72 48 -64 69 3 7 2 13 -3 13 -11 0 -25 -48 -22 -72 3 -22 -11 -23 -55
-2 -71 34 -93 98 -54 161 27 46 65 62 136 59 79 -4 134 -28 134 -58 0 -22 18
-61 21 -45 1 4 3 12 4 17 1 6 3 15 4 20 2 17 30 11 40 -7 9 -17 11 -24 11 -40
0 -5 7 1 15 11 14 18 16 17 55 -25 37 -41 48 -28 12 14 -14 15 -13 17 1 17 21
0 67 -21 67 -31 0 -4 6 -9 13 -12 6 -3 29 -12 50 -21 37 -16 37 -16 32 6 -6
22 -4 23 62 23 37 0 82 6 99 13 39 17 72 61 80 106 4 29 1 40 -20 61 -30 30
-59 32 -86 5z m-466 -473 c11 -8 19 -26 19 -42 0 -57 -74 -74 -102 -24 -29 53
34 102 83 66z m196 -19 c25 -46 -16 -90 -67 -72 -22 7 -29 16 -31 44 -6 62 67
83 98 28z m138 -44 c28 -19 28 -58 1 -85 -33 -33 -89 -7 -89 42 0 27 30 59 55
59 6 0 21 -7 33 -16z m-420 -60 c32 -22 27 -73 -9 -93 -24 -13 -29 -13 -53 2
-34 22 -36 69 -4 91 28 20 38 20 66 0z m202 -14 c24 -24 25 -38 4 -68 -36 -51
-122 -5 -93 50 23 43 57 50 89 18z m362 -17 c35 -32 13 -93 -34 -93 -49 0 -74
56 -41 92 20 22 51 23 75 1z m-734 -30 c18 -24 15 -41 -12 -68 -27 -27 -58
-24 -81 7 -15 22 -11 43 14 71 18 21 59 16 79 -10z m506 -39 c50 -49 -24 -124
-76 -77 -36 33 -13 93 37 93 13 0 31 -7 39 -16z m-693 -4 c23 -13 26 -62 3
-84 -49 -50 -124 24 -77 76 18 20 45 23 74 8z m293 -41 c44 -21 44 -83 0 -100
-62 -23 -108 51 -56 92 29 22 25 22 56 8z m570 -75 c8 -29 -2 -52 -25 -65 -49
-26 -104 31 -75 77 28 41 89 34 100 -12z m-738 -19 c28 -28 26 -59 -5 -83 -15
-12 -58 -9 -72 6 -21 22 -19 53 5 77 14 14 30 25 36 25 6 0 22 -11 36 -25z
m567 -46 c30 -16 37 -30 32 -58 -4 -24 -31 -50 -53 -51 -16 0 -62 45 -62 60 0
11 45 60 55 60 4 0 16 -5 28 -11z"/>
<path d="M535 2341 c-57 -26 -77 -53 -89 -124 -17 -92 -11 -482 7 -504 14 -18
73 -16 92 3 14 14 15 41 9 222 -10 304 -5 370 32 407 21 21 0 20 -51 -4z"/>
<path d="M1053 2242 c-6 -4 -15 -21 -19 -37 -7 -28 -6 -29 10 -13 20 21 46 13
46 -13 0 -25 -26 -35 -45 -19 -18 15 -21 -1 -5 -31 15 -27 70 -27 70 1 0 27
11 25 55 -10 21 -17 40 -28 42 -26 3 2 -3 18 -12 35 -19 39 -13 39 58 0 31
-17 57 -28 57 -24 0 3 -6 20 -14 39 l-13 32 53 -4 c29 -2 70 -1 90 3 l37 6
-61 30 c-72 34 -80 35 -78 12 1 -19 -6 -20 -81 -7 -35 5 -43 4 -43 -9 0 -21
-27 -15 -83 17 -49 29 -47 29 -64 18z"/>
<path d="M1364 2095 l7 -45 -38 5 c-21 3 -44 8 -51 10 -7 3 -17 -7 -22 -20 -5
-14 -14 -25 -19 -25 -19 0 -57 19 -78 39 -43 41 -74 18 -54 -40 8 -25 8 -34
-4 -46 -8 -8 -15 -22 -16 -31 0 -9 -3 -30 -5 -45 -3 -19 -1 -26 6 -22 5 3 10
12 10 20 0 28 21 25 61 -7 l40 -33 19 25 19 25 40 -22 c22 -13 46 -23 54 -23
15 0 45 29 46 45 0 17 31 17 73 0 51 -20 66 -9 45 34 -17 35 -14 41 24 41 15
0 31 5 35 12 4 6 3 8 -3 5 -6 -4 -32 1 -58 9 -54 19 -75 9 -54 -24 18 -29 11
-32 -37 -20 -52 14 -70 7 -77 -31 -8 -37 -19 -38 -71 -6 -41 25 -66 20 -66
-11 0 -20 -24 -7 -50 28 -14 18 -19 33 -13 35 6 2 9 12 6 22 -8 32 14 32 60 1
60 -40 91 -43 92 -10 0 24 2 25 65 25 60 0 65 2 68 23 2 12 6 22 10 23 47 4
77 11 95 21 20 11 18 12 -28 23 -27 7 -63 17 -78 24 -53 21 -60 16 -53 -34z"/>
<path d="M1552 1927 c-6 -6 -12 -28 -14 -47 l-4 -35 -47 3 c-39 3 -52 -1 -78
-22 -21 -18 -38 -24 -53 -20 -26 6 -79 7 -121 1 -18 -3 -43 3 -62 14 -32 18
-33 18 -47 -3 -13 -19 -17 -20 -33 -7 -10 8 -22 20 -26 27 -18 27 -52 11 -110
-50 -32 -35 -54 -64 -48 -66 5 -2 37 8 70 21 33 13 62 23 64 21 2 -2 1 -24 -3
-49 -12 -81 11 -75 86 20 30 38 32 38 55 23 13 -8 41 -17 63 -20 33 -4 39 -1
47 19 13 34 29 36 80 14 65 -30 77 -28 81 17 l3 37 75 1 c95 1 100 2 71 18
-24 14 -24 14 30 45 30 17 59 31 66 31 6 0 15 5 18 10 10 15 -150 13 -163 -3z"/>
<path d="M590 1707 c0 -23 -34 -47 -81 -55 -59 -11 -72 -7 -93 28 -22 38 -34
38 -31 0 3 -39 30 -69 59 -66 12 2 32 -1 43 -5 20 -7 21 -14 18 -109 l-3 -102
-36 -33 c-20 -18 -49 -38 -66 -45 -48 -20 -41 -29 37 -45 25 -5 33 -13 38 -36
8 -37 29 -37 44 -1 8 18 27 35 54 47 l42 19 -32 13 -32 13 4 97 c2 54 5 122 6
151 2 33 7 52 15 52 21 0 41 74 23 86 -5 3 -9 -1 -9 -9z"/>
<path d="M1195 1702 c-55 -9 -117 -36 -135 -59 l-19 -25 -21 35 c-25 41 -44
51 -72 36 -45 -24 -3 -178 73 -263 35 -40 127 -89 158 -84 20 3 20 5 -11 67
-35 72 -47 155 -29 200 13 29 44 47 126 72 22 7 36 13 30 15 -21 6 -81 9 -100
6z"/>
<path d="M848 1634 c-66 -62 -150 -81 -212 -49 -37 19 -37 19 -31 -7 10 -47
12 -102 4 -131 -8 -28 -7 -29 18 -22 95 23 155 24 181 3 24 -21 42 -66 42
-109 0 -40 11 -48 16 -11 10 65 16 78 49 100 19 12 39 22 45 22 17 0 11 10
-19 36 -36 30 -52 76 -52 149 0 30 -1 55 -2 55 -1 0 -19 -16 -39 -36z"/>
<path d="M1272 1646 c-18 -5 -47 -22 -63 -37 -39 -37 -38 -76 7 -169 20 -41
36 -91 37 -111 1 -43 -21 -99 -39 -99 -33 0 -131 -53 -147 -80 -24 -40 -22
-41 26 -20 61 28 77 26 77 -9 0 -41 11 -44 46 -12 16 15 40 33 52 40 23 12 25
9 25 -41 0 -10 1 -18 4 -18 2 0 26 18 54 40 28 22 54 40 57 40 4 0 23 -14 42
-30 31 -26 80 -41 80 -24 0 3 -14 26 -32 50 l-31 44 20 23 c21 21 27 38 24 66
-1 8 -9 3 -22 -13 -26 -33 -56 -34 -70 -2 -9 18 -8 44 3 103 16 87 15 186 -2
218 -24 45 -82 61 -148 41z"/>
<path d="M380 1575 c-6 -14 -6 -34 -2 -43 5 -9 8 -28 7 -42 -1 -14 3 -34 9
-45 10 -20 12 -26 15 -44 1 -12 50 -20 57 -10 3 5 -2 12 -11 15 -15 6 -17 40
-4 79 2 6 -2 20 -9 32 -8 14 -9 24 -2 28 20 13 6 39 -27 49 -19 6 -25 2 -33
-19z"/>
<path d="M1960 1526 c-19 -7 -53 -25 -74 -39 -22 -15 -50 -30 -63 -33 -13 -4
-23 -9 -23 -13 0 -3 45 -37 100 -76 55 -38 100 -75 100 -82 0 -20 -31 -31
-105 -38 -73 -7 -105 -25 -105 -57 0 -14 8 -18 35 -18 40 0 42 -5 18 -33 -18
-20 -17 -20 12 -12 60 15 98 17 105 5 5 -8 25 0 65 26 32 20 67 37 77 38 24 1
38 23 38 60 0 17 10 40 22 53 l22 24 -40 -6 c-54 -9 -64 6 -68 99 -2 50 -8 82
-17 90 -22 21 -61 26 -99 12z"/>
<path d="M542 1008 c-82 -52 -78 -220 7 -262 27 -13 76 -14 89 -2 4 4 7 20 8
36 0 25 -2 27 -22 19 -47 -17 -72 28 -66 118 3 31 47 60 67 43 12 -10 16 -10
20 1 5 16 2 46 -7 54 -15 15 -67 11 -96 -7z"/>
<path d="M1363 1014 c-42 -21 -65 -65 -66 -132 -1 -99 55 -161 132 -146 35 7
90 64 92 94 5 94 0 120 -33 155 -38 39 -82 50 -125 29z m87 -135 c0 -36 -5
-54 -20 -69 -24 -24 -35 -20 -53 18 -14 30 -14 40 -4 94 16 77 77 42 77 -43z"/>
<path d="M680 880 c0 -138 0 -140 23 -141 27 -1 139 -1 150 0 4 1 6 13 4 29
-3 24 -8 27 -43 28 -21 1 -45 2 -52 3 -8 1 -11 11 -9 29 3 25 7 27 48 28 40 1
44 3 47 27 3 26 2 27 -48 27 -50 0 -51 1 -48 27 3 24 7 26 53 27 47 1 50 3 52
29 l2 27 -90 0 -89 0 0 -140z"/>
<path d="M880 1016 c0 -3 15 -38 33 -78 27 -59 33 -85 32 -135 l-1 -63 38 0
38 0 0 66 c0 61 17 111 68 207 2 5 -15 7 -39 5 -40 -3 -43 -5 -54 -43 -12 -41
-17 -38 -29 18 -6 24 -11 27 -46 27 -22 0 -40 -2 -40 -4z"/>
<path d="M1119 983 c-2 -105 0 -236 5 -240 2 -3 28 -5 58 -5 112 0 108 -1 108
31 0 26 -3 28 -37 28 -21 0 -44 1 -50 2 -10 1 -13 30 -13 111 l0 110 -35 0
c-34 0 -35 -1 -36 -37z"/>
<path d="M1558 1013 c-3 -4 -4 -69 -4 -143 l1 -135 30 4 c17 1 33 5 36 7 4 2
5 31 4 64 -1 33 1 60 5 60 5 0 16 -24 25 -53 21 -68 26 -74 50 -77 57 -6 55
-11 55 140 l0 140 -35 0 -35 0 -1 -77 0 -78 -28 75 c-27 72 -30 75 -64 78 -19
2 -37 -1 -39 -5z"/>
<path d="M1906 1012 c-10 -16 7 -53 23 -51 38 3 39 1 37 -111 l-1 -110 37 0
37 0 3 113 3 112 28 -3 c24 -3 27 0 27 27 l0 31 -94 0 c-52 0 -97 -4 -100 -8z"/>
<path d="M2135 880 l-1 -140 28 -1 c15 0 48 0 73 0 78 0 77 -1 73 29 -3 23 -8
27 -38 28 -54 2 -57 3 -63 23 -7 29 6 40 44 37 43 -4 54 2 55 32 1 20 -4 22
-47 22 -42 0 -47 3 -51 25 -6 27 -6 27 60 28 39 0 42 2 42 29 l0 28 -87 0 -88
0 0 -140z"/>
<path d="M2371 898 c-19 -67 -36 -129 -38 -139 -4 -14 2 -18 29 -21 29 -3 34
1 43 26 11 33 47 43 68 18 6 -8 11 -17 10 -19 -14 -19 26 -37 57 -25 16 7 15
14 -12 107 -15 55 -33 117 -39 138 -9 34 -12 37 -47 37 l-37 0 -34 -122z m82
-10 c5 -34 -4 -55 -20 -45 -11 7 -4 77 7 77 4 0 10 -15 13 -32z"/>
<path d="M494 666 c-15 -12 -17 -18 -8 -33 6 -10 20 -19 32 -21 11 -2 26 -10
32 -17 15 -18 -8 -30 -46 -22 -15 3 -23 0 -21 -7 6 -20 62 -18 87 2 21 17 22
22 11 35 -7 9 -26 19 -42 22 -38 9 -40 37 -1 35 41 -3 49 -1 32 10 -22 14 -53
12 -76 -4z"/>
<path d="M600 673 c0 -5 9 -19 20 -33 11 -14 20 -40 20 -57 0 -23 5 -33 15
-33 10 0 15 10 15 26 0 15 10 42 21 61 26 42 15 58 -14 21 l-22 -26 -18 24
c-17 23 -37 32 -37 17z"/>
<path d="M744 668 c-14 -22 -10 -118 4 -118 12 0 14 9 14 64 l1 28 22 -28 c25
-32 25 -32 48 11 l16 30 -1 -40 c-1 -59 1 -67 14 -63 19 7 18 116 0 123 -9 3
-19 0 -23 -7 -4 -7 -14 -22 -22 -32 -14 -19 -15 -19 -31 12 -18 34 -30 40 -42
20z"/>
<path d="M910 614 l0 -64 38 0 c44 0 84 24 76 45 -4 8 -12 15 -20 15 -8 0 -14
5 -14 10 0 6 5 10 10 10 6 0 10 9 10 19 0 19 -24 28 -77 29 -22 1 -23 -3 -23
-64z m70 32 c0 -7 -9 -16 -20 -19 -15 -4 -20 0 -20 14 0 12 7 19 20 19 11 0
20 -6 20 -14z m9 -50 c9 -11 8 -15 -5 -20 -29 -11 -44 -6 -44 14 0 23 31 27
49 6z"/>
<path d="M1051 654 c-36 -46 -7 -103 52 -104 58 0 86 65 47 108 -29 31 -73 29
-99 -4z m86 -20 c17 -45 -31 -88 -61 -55 -20 22 -20 41 0 69 12 18 19 20 35
11 11 -5 23 -17 26 -25z"/>
<path d="M1196 672 c-3 -4 -4 -34 -4 -65 l2 -57 48 0 c26 0 48 5 48 10 0 6
-16 10 -35 10 l-35 0 0 55 c0 49 -10 69 -24 47z"/>
<path d="M1390 660 c-11 -11 -20 -33 -20 -49 0 -55 78 -82 115 -41 56 62 -36
149 -95 90z m81 -20 c1 -6 2 -16 3 -22 5 -28 -15 -49 -42 -46 -23 2 -28 9 -30
36 -4 40 22 66 50 51 10 -5 19 -14 19 -19z"/>
<path d="M1530 624 c0 -30 0 -57 0 -61 0 -13 25 -9 26 5 1 6 2 19 3 27 1 10
10 14 31 11 17 -2 30 1 30 5 0 5 -6 9 -12 10 -7 1 -22 2 -32 3 -10 0 -20 9
-22 19 -2 14 5 17 39 17 54 0 38 14 -19 17 l-44 2 0 -55z"/>
<path d="M1748 673 c-9 -2 -22 -18 -28 -34 -17 -40 -1 -76 37 -84 15 -4 40
-13 55 -21 17 -9 29 -11 33 -4 3 5 -1 10 -9 10 -18 0 -21 11 -5 27 17 17 21
67 7 85 -14 17 -62 29 -90 21z m60 -25 c15 -15 16 -55 1 -64 -6 -3 -15 -1 -19
6 -5 9 -9 9 -14 1 -4 -6 -4 -15 -1 -21 9 -15 -2 -12 -19 6 -30 29 -14 84 24
84 9 0 21 -5 28 -12z"/>
<path d="M1877 673 c-3 -5 -5 -27 -5 -50 -1 -50 17 -73 58 -73 42 0 59 22 57
77 -3 67 -25 68 -29 1 -3 -49 -5 -53 -28 -53 -22 0 -25 5 -27 35 -1 19 -2 43
-2 53 -1 17 -16 23 -24 10z"/>
<path d="M2030 626 c-12 -28 -24 -57 -27 -63 -3 -7 2 -13 10 -13 9 0 19 9 22
20 4 13 15 20 30 20 15 0 26 -7 30 -20 5 -17 35 -30 35 -16 0 21 -54 123 -65
123 -8 0 -23 -23 -35 -51z m50 -18 c0 -5 -7 -8 -15 -8 -17 0 -18 2 -9 25 5 13
8 14 15 3 5 -7 9 -16 9 -20z"/>
<path d="M2150 616 l0 -66 50 0 c28 0 50 5 50 10 0 6 -16 10 -34 10 -35 0 -35
0 -38 52 -2 30 -8 53 -15 56 -10 3 -13 -14 -13 -62z"/>
<path d="M2269 673 c-4 -48 -3 -107 3 -116 14 -21 25 11 22 61 -3 64 -3 62
-14 62 -5 0 -10 -3 -11 -7z"/>
<path d="M2314 668 c-3 -4 6 -8 21 -8 23 0 25 -4 24 -32 -3 -59 1 -80 14 -76
7 3 12 24 12 54 1 43 4 49 23 52 12 2 22 7 22 12 0 11 -109 9 -116 -2z"/>
<path d="M2447 674 c-4 -4 3 -20 14 -35 11 -16 21 -42 21 -59 1 -38 28 -41 28
-4 0 15 10 42 21 61 26 42 15 58 -15 20 l-22 -28 -14 26 c-14 25 -22 30 -33
19z"/>
</g>
</svg>
